PathFileType	4	(x/y/z)	S06_P20_T62
DataRate	CameraRate	NumFrames	NumMarkers	Units	OrigDataRate	OrigDataStartFrame	OrigNumFrames
240	240	11	51	mm	240	261	347
Frame#	Time	Sternum			R.Acromium			L.Acromium			Top.Head			R.ASIS			L.ASIS			R.PSIS			L.PSIS			R.Great.Tro			L.Great.Tro			R.Iliac.Crest			L.Iliac.Crest			V.Sacral			R.Thigh.Upper.Post			R.Thigh.Lower.Ant			R.Thigh.Lower.Post			R.Thigh.Upper.Ant			R.Knee.Lat			R.Knee.Med			R.Shank.Upper.Post			R.Shank.Lower.Ant			R.Shank.Lower.Post			R.Shank.Upper.Ant			R.Ankle.Lat			R.Ankle.Med			R.Heel.Upper			R.Heel.Med			R.Heel.Lat			R.Toe.Lat			R.Toe.Med			R.Toe.Tip			L.Thigh.Upper.Post			L.Thigh.Lower.Ant			L.Thigh.Lower.Post			L.Thigh.Upper.Ant			L.Knee.Lat			L.Knee.Med			L.Shank.Upper.Post			L.Shank.Lower.Ant			L.Shank.Lower.Post			L.Shank.Upper.Ant			L.Ankle.Lat			L.Ankle.Med			L.Heel.Upper			L.Heel.Med			L.Heel.Lat			L.Toe.Lat			L.Toe.Med			L.Toe.Tip			Cervical.Spine			Back			
		X1	Y1	Z1	X2	Y2	Z2	X3	Y3	Z3	X4	Y4	Z4	X5	Y5	Z5	X6	Y6	Z6	X7	Y7	Z7	X8	Y8	Z8	X9	Y9	Z9	X10	Y10	Z10	X11	Y11	Z11	X12	Y12	Z12	X13	Y13	Z13	X14	Y14	Z14	X15	Y15	Z15	X16	Y16	Z16	X17	Y17	Z17	X18	Y18	Z18	X19	Y19	Z19	X20	Y20	Z20	X21	Y21	Z21	X22	Y22	Z22	X23	Y23	Z23	X24	Y24	Z24	X25	Y25	Z25	X26	Y26	Z26	X27	Y27	Z27	X28	Y28	Z28	X29	Y29	Z29	X30	Y30	Z30	X31	Y31	Z31	X32	Y32	Z32	X33	Y33	Z33	X34	Y34	Z34	X35	Y35	Z35	X36	Y36	Z36	X37	Y37	Z37	X38	Y38	Z38	X39	Y39	Z39	X40	Y40	Z40	X41	Y41	Z41	X42	Y42	Z42	X43	Y43	Z43	X44	Y44	Z44	X45	Y45	Z45	X46	Y46	Z46	X47	Y47	Z47	X48	Y48	Z48	X49	Y49	Z49	X50	Y50	Z50	X51	Y51	Z51	

261	1.0833	135.21	1280	348.31	8.7185	1493.1	510.56	13.11	1485.7	156.69	4.5126	1806.7	322.62	69.588	1042.4	470.17	90.372	1046.5	215.52	-121.13	1069.1	361.85	-116.5	1074.2	282.42	13.003	973.26	513.58	3.4835	979.69	154.84	-14.363	1118.8	495.15	23.188	1120.4	176.5	-132.85	1037.1	323.3	83.328	732.51	521.27	161.9	668.54	497.97	96.077	644.62	507.45	149.75	759.03	504.74	129.91	541.9	498.43	153.22	543.21	369.64	-49.649	412.72	488.52	-55.083	326.23	462.67	-108.83	364.71	472.38	2.3679	375.21	480.44	-182.47	254.06	445.88	-165.13	244.45	354.47	-250.48	281.17	390.21	-268.28	255.27	358.76	-271.16	255.54	423.84	-170.45	112.41	466.42	-141.95	99.605	350.15	-90.082	57.694	396.54	106.46	722.93	178.99	165.89	656.84	244.29	102.79	634.47	201.83	161.91	748.73	218.4	103.91	541.83	222.12	127.61	556.33	340.71	58.465	315.89	239.93	121.66	253.62	248.21	51.639	245.24	260.27	124.51	323.42	233.33	96.189	103.99	267.03	100.51	113.58	358.99	19.416	70.398	310.91	23.237	44.418	344.41	26.735	43.748	282.45	207.18	42.818	251.76	221.76	54.025	369.89	294.93	66.661	319.74	-46.328	1544	332.55	-104.78	1272.6	332.88
262	1.0875	140.31	1280.5	348.39	13.854	1493.7	510.6	18.54	1486.2	156.72	9.9913	1807.3	322.42	74.609	1043.1	469.96	95.27	1047.1	215.35	-116.18	1069.7	361.86	-111.56	1074.9	282.41	18.251	973.97	513.5	8.121	980.34	154.75	-9.2927	1119.4	495.06	28.123	1121.2	176.48	-127.91	1037.7	323.29	91.245	734.14	520.91	170.44	671.06	497.27	104.97	646.4	507	157.28	761.42	504.1	140.05	544.12	497.99	162.59	545.63	369.02	-38.558	413.46	488.76	-43.296	326.92	463.02	-97.335	364.9	472.94	13.774	376.43	480.52	-170.18	254.08	446.62	-153.07	243.92	355.22	-238.97	279.36	390.79	-256.39	252.78	359.71	-259.03	253.76	424.82	-155.58	113.19	468.53	-127.34	99.461	352.33	-74.609	59.009	398.96	109.69	723.05	178.76	168.97	656.6	243.84	105.55	634.64	201.64	165.47	748.49	217.94	106.2	541.92	222	130.41	556.35	340.47	59.574	316.17	239.98	122.47	253.59	248.09	52.438	245.57	260.35	125.63	323.37	233.17	96.347	104.05	267.01	100.75	113.69	358.93	19.471	70.506	310.94	23.251	44.524	344.41	26.787	43.882	282.47	207.23	42.692	251.69	221.87	53.915	369.85	295.07	66.279	319.67	-41.022	1544.7	332.51	-99.697	1273.3	332.81
263	1.0917	145.41	1281	348.46	18.997	1494.4	510.64	23.931	1486.8	156.76	15.469	1808	322.24	79.618	1043.8	469.74	100.17	1047.8	215.18	-111.23	1070.4	361.88	-106.61	1075.5	282.4	23.48	974.71	513.41	12.74	980.98	154.67	-4.2242	1120.1	494.97	33.067	1121.9	176.45	-122.97	1038.4	323.29	99.084	735.8	520.51	178.87	673.6	496.5	113.76	648.22	506.51	164.72	763.83	503.41	150.05	546.38	497.49	171.87	548.07	368.36	-27.497	414.06	488.97	-31.426	327.45	463.35	-85.795	364.88	473.45	25.196	377.57	480.59	-157.71	253.77	447.35	-140.8	243.09	355.95	-227.28	277.13	391.35	-244.26	249.88	360.65	-246.69	251.55	425.78	-140.39	113.72	470.61	-112.36	99.116	354.49	-58.74	60.237	401.34	112.91	723.17	178.58	172.01	656.35	243.44	108.3	634.8	201.49	169.01	748.25	217.53	108.47	542	221.9	133.15	556.36	340.27	60.674	316.45	240.04	123.28	253.56	247.99	53.233	245.89	260.43	126.74	323.31	233.05	96.507	104.12	267	100.98	113.8	358.89	19.529	70.618	310.98	23.263	44.631	344.41	26.84	44.022	282.49	207.28	42.577	251.62	221.99	53.803	369.83	295.21	65.908	319.61	-35.727	1545.3	332.48	-94.614	1274	332.74
264	1.0958	150.5	1281.6	348.52	24.148	1495	510.68	29.286	1487.3	156.8	20.946	1808.6	322.08	84.616	1044.5	469.5	105.08	1048.4	215.01	-106.28	1071.1	361.9	-101.66	1076.2	282.39	28.692	975.49	513.32	17.344	981.6	154.58	0.84044	1120.8	494.86	38.022	1122.6	176.42	-118.02	1039.1	323.28	106.84	737.49	520.07	187.19	676.16	495.68	122.46	650.08	505.99	172.08	766.24	502.69	159.91	548.65	496.93	181.05	550.52	367.65	-16.469	414.52	489.14	-19.477	327.83	463.67	-74.214	364.65	473.92	36.63	378.62	480.64	-145.06	253.15	448.05	-128.31	241.97	356.68	-215.4	274.52	391.92	-231.91	246.58	361.59	-234.14	248.94	426.73	-124.89	114	472.65	-97.023	98.585	356.61	-42.506	61.375	403.69	116.13	723.28	178.44	175.04	656.09	243.09	111.03	634.96	201.37	172.53	747.99	217.17	110.7	542.08	221.84	135.82	556.35	340.11	61.771	316.72	240.1	124.09	253.53	247.92	54.026	246.2	260.53	127.85	323.27	232.95	96.671	104.19	267.01	101.21	113.9	358.85	19.589	70.734	311.03	23.272	44.738	344.41	26.894	44.167	282.52	207.33	42.472	251.55	222.1	53.688	369.8	295.35	65.544	319.57	-30.445	1546	332.46	-89.536	1274.8	332.69
265	1.1	155.59	1282.2	348.57	29.305	1495.7	510.71	34.609	1487.9	156.84	26.421	1809.2	321.94	89.602	1045.3	469.26	109.99	1049	214.83	-101.34	1071.7	361.91	-96.706	1076.9	282.38	33.888	976.29	513.23	21.936	982.2	154.5	5.8996	1121.6	494.75	42.992	1123.3	176.39	-113.08	1039.8	323.27	114.53	739.2	519.61	195.39	678.73	494.82	131.05	651.96	505.43	179.35	768.64	501.94	169.63	550.95	496.32	190.14	552.97	366.91	-5.4761	414.86	489.29	-7.4539	328.07	463.99	-62.595	364.23	474.34	48.069	379.59	480.68	-132.24	252.21	448.75	-115.61	240.58	357.4	-203.34	271.54	392.48	-219.31	242.92	362.52	-221.39	245.95	427.67	-109.12	114.05	474.65	-81.347	97.882	358.69	-25.937	62.421	406	119.35	723.39	178.34	178.04	655.82	242.77	113.76	635.12	201.27	176.04	747.72	216.87	112.91	542.16	221.81	138.45	556.33	339.97	62.867	316.99	240.17	124.9	253.5	247.88	54.82	246.5	260.62	128.96	323.22	232.88	96.84	104.27	267.03	101.44	114	358.83	19.653	70.853	311.09	23.282	44.846	344.42	26.95	44.316	282.55	207.38	42.374	251.5	222.21	53.571	369.78	295.48	65.186	319.52	-25.173	1546.6	332.45	-84.461	1275.5	332.63
266	1.1042	160.68	1282.7	348.61	34.469	1496.4	510.74	39.904	1488.5	156.88	31.894	1809.8	321.83	94.578	1046	469	114.91	1049.6	214.66	-96.401	1072.4	361.93	-91.747	1077.6	282.37	39.072	977.11	513.14	26.523	982.8	154.42	10.952	1122.3	494.64	47.98	1123.9	176.35	-108.14	1040.4	323.27	122.13	740.91	519.13	203.48	681.29	493.9	139.54	653.85	504.86	186.53	771.03	501.15	179.19	553.25	495.66	199.11	555.42	366.14	5.4798	415.05	489.4	4.6378	328.17	464.3	-50.942	363.61	474.71	59.51	380.47	480.72	-119.25	250.97	449.43	-102.7	238.92	358.12	-191.07	268.21	393.04	-206.48	238.92	363.44	-208.42	242.59	428.6	-93.091	113.87	476.61	-65.352	97.021	360.72	-9.0624	63.373	408.25	122.58	723.5	178.26	181.03	655.54	242.51	116.48	635.28	201.2	179.55	747.44	216.61	115.1	542.24	221.8	141.02	556.3	339.87	63.965	317.25	240.23	125.72	253.48	247.86	55.618	246.8	260.71	130.06	323.18	232.84	97.014	104.36	267.06	101.66	114.1	358.82	19.72	70.975	311.15	23.294	44.954	344.42	27.006	44.468	282.59	207.42	42.282	251.45	222.32	53.451	369.76	295.62	64.831	319.49	-19.91	1547.2	332.45	-79.387	1276.2	332.58
267	1.1083	165.76	1283.3	348.64	39.641	1497	510.77	45.173	1489.1	156.92	37.364	1810.4	321.73	99.542	1046.8	468.74	119.83	1050.1	214.49	-91.463	1073.1	361.95	-86.785	1078.3	282.36	44.245	977.94	513.06	31.107	983.39	154.34	15.998	1123.1	494.52	52.985	1124.6	176.31	-103.19	1041.1	323.27	129.65	742.63	518.63	211.46	683.84	492.94	147.92	655.74	504.26	193.62	773.4	500.34	188.6	555.54	494.96	207.97	557.85	365.34	16.398	415.12	489.49	16.794	328.13	464.6	-39.255	362.8	475.05	70.948	381.25	480.75	-106.09	249.44	450.1	-89.589	237.01	358.83	-178.6	264.54	393.61	-193.39	234.6	364.36	-195.25	238.89	429.52	-76.822	113.48	478.52	-49.055	96.018	362.71	8.0901	64.237	410.45	125.81	723.61	178.23	183.99	655.25	242.29	119.21	635.44	201.14	183.05	747.15	216.41	117.28	542.31	221.82	143.53	556.25	339.8	65.066	317.5	240.29	126.55	253.46	247.86	56.42	247.09	260.79	131.17	323.14	232.82	97.194	104.45	267.1	101.88	114.19	358.82	19.789	71.1	311.21	23.309	45.061	344.44	27.065	44.622	282.63	207.47	42.195	251.4	222.44	53.328	369.74	295.75	64.479	319.46	-14.654	1547.8	332.44	-74.313	1276.9	332.53
268	1.1125	170.84	1283.9	348.66	44.82	1497.6	510.8	50.422	1489.7	156.96	42.83	1811	321.66	104.5	1047.6	468.47	124.76	1050.7	214.33	-86.526	1073.8	361.97	-81.819	1079	282.35	49.409	978.77	512.98	35.696	983.96	154.27	21.036	1123.9	494.4	58.008	1125.2	176.27	-98.245	1041.8	323.27	137.1	744.34	518.11	219.31	686.36	491.94	156.18	657.63	503.63	200.63	775.73	499.5	197.86	557.82	494.22	216.7	560.26	364.51	27.278	415.05	489.55	29.009	327.96	464.89	-27.536	361.8	475.34	82.379	381.95	480.78	-92.763	247.64	450.77	-76.272	234.86	359.54	-165.93	260.56	394.18	-180.06	229.97	365.26	-181.85	234.86	430.43	-60.335	112.9	480.39	-32.473	94.888	364.64	25.494	65.015	412.59	129.06	723.72	178.22	186.95	654.96	242.12	121.94	635.59	201.11	186.55	746.86	216.26	119.45	542.37	221.85	146	556.19	339.75	66.171	317.75	240.34	127.38	253.43	247.87	57.226	247.37	260.87	132.29	323.09	232.82	97.38	104.54	267.15	102.1	114.29	358.82	19.862	71.229	311.28	23.329	45.168	344.46	27.125	44.777	282.67	207.52	42.112	251.35	222.55	53.202	369.72	295.89	64.129	319.44	-9.4044	1548.4	332.45	-69.239	1277.6	332.48
269	1.1167	175.92	1284.5	348.67	50.006	1498.2	510.82	55.653	1490.3	156.99	48.292	1811.5	321.61	109.44	1048.3	468.21	129.7	1051.2	214.18	-81.587	1074.4	362	-76.849	1079.7	282.34	54.567	979.61	512.91	40.293	984.52	154.21	26.068	1124.6	494.29	63.046	1125.8	176.23	-93.296	1042.5	323.27	144.46	746.04	517.58	227.04	688.85	490.91	164.34	659.51	502.99	207.55	778.02	498.65	206.95	560.08	493.44	225.29	562.64	363.65	38.121	414.84	489.58	41.28	327.65	465.18	-15.787	360.63	475.59	93.8	382.56	480.79	-79.28	245.57	451.42	-62.752	232.48	360.24	-153.04	256.29	394.76	-166.47	225.08	366.16	-168.24	230.53	431.32	-43.644	112.14	482.21	-15.622	93.646	366.52	43.126	65.715	414.67	132.32	723.82	178.24	189.88	654.67	242	124.67	635.73	201.09	190.05	746.56	216.16	121.6	542.44	221.91	148.42	556.12	339.72	67.28	317.99	240.39	128.22	253.41	247.9	58.036	247.65	260.95	133.41	323.05	232.83	97.572	104.64	267.21	102.31	114.37	358.83	19.937	71.36	311.35	23.356	45.271	344.49	27.186	44.934	282.72	207.57	42.033	251.31	222.67	53.075	369.7	296.02	63.78	319.42	-4.1584	1549	332.45	-64.163	1278.3	332.42
270	1.1208	180.99	1285.1	348.67	55.199	1498.8	510.83	60.873	1490.9	157.02	53.75	1812.1	321.57	114.38	1049.1	467.96	134.64	1051.7	214.05	-76.648	1075.1	362.02	-71.876	1080.3	282.34	59.721	980.44	512.85	44.903	985.07	154.15	31.094	1125.4	494.18	68.099	1126.4	176.19	-88.346	1043.1	323.28	151.74	747.71	517.04	234.65	691.28	489.84	172.37	661.36	502.34	214.39	780.26	497.78	215.88	562.31	492.62	233.73	564.97	362.78	48.929	414.5	489.58	53.602	327.23	465.46	-4.0066	359.28	475.79	105.21	383.07	480.8	-65.639	243.26	452.06	-49.033	229.9	360.93	-139.93	251.74	395.34	-152.63	219.94	367.05	-154.41	225.92	432.2	-26.767	111.21	483.97	1.4844	92.308	368.34	60.962	66.347	416.68	135.59	723.93	178.28	192.8	654.37	241.93	127.42	635.88	201.08	193.55	746.26	216.11	123.74	542.49	221.97	150.8	556.03	339.72	68.393	318.22	240.43	129.06	253.38	247.95	58.849	247.92	261.01	134.53	323	232.86	97.769	104.74	267.27	102.51	114.46	358.85	20.016	71.494	311.42	23.392	45.372	344.52	27.248	45.092	282.77	207.62	41.956	251.27	222.79	52.946	369.67	296.16	63.433	319.4	1.085	1549.5	332.46	-59.084	1279	332.36
271	1.125	186.07	1285.6	348.66	60.399	1499.4	510.84	66.083	1491.5	157.05	59.201	1812.6	321.56	119.31	1049.8	467.71	139.58	1052.1	213.93	-71.705	1075.7	362.06	-66.9	1081	282.34	64.874	981.27	512.8	49.531	985.61	154.11	36.114	1126.1	494.08	73.164	1127	176.15	-83.394	1043.8	323.28	158.95	749.34	516.5	242.13	693.66	488.75	180.28	663.18	501.66	221.14	782.43	496.91	224.65	564.49	491.78	242	567.26	361.89	59.705	414.02	489.56	65.973	326.68	465.72	7.8044	357.77	475.96	116.6	383.49	480.8	-51.844	240.72	452.69	-35.116	227.13	361.61	-126.6	246.93	395.91	-138.54	214.57	367.91	-140.36	221.06	433.07	-9.7157	110.13	485.69	18.831	90.889	370.11	78.981	66.919	418.62	138.87	724.04	178.35	195.7	654.06	241.91	130.17	636.01	201.09	197.05	745.95	216.11	125.87	542.54	222.06	153.13	555.93	339.75	69.509	318.45	240.47	129.91	253.36	248	59.664	248.17	261.08	135.65	322.95	232.91	97.971	104.84	267.33	102.71	114.54	358.87	20.097	71.63	311.49	23.437	45.469	344.56	27.311	45.251	282.82	207.67	41.882	251.24	222.92	52.817	369.64	296.29	63.086	319.39	6.3272	1550.1	332.47	-54.001	1279.6	332.29
